<svg width="134" height="31" viewBox="0 0 134 31" fill="none" xmlns="http://www.w3.org/2000/svg">
<path d="M15.9097 30.0342C15.9097 30.4731 15.5398 30.8212 15.1009 30.7993C6.97734 30.3773 0.5 23.6359 0.5 15.4097C0.5 7.1836 7.41287 0 15.9097 0C19.1736 0 22.3686 1.04593 24.9935 2.96122C25.3483 3.22018 25.4139 3.72296 25.1364 4.06264L23.6852 5.84508C23.4297 6.15785 22.9756 6.21838 22.6477 5.98297C20.6921 4.5856 18.3278 3.82385 15.9114 3.82385C9.52321 3.82385 4.32553 9.02153 4.32553 15.4097C4.32553 21.798 9.13814 26.6022 15.1934 26.9738C15.597 26.999 15.9097 27.332 15.9097 27.7355V30.0342Z" fill="#7B20C8"/>
<path d="M27.9432 11.0281H18.5803C18.5803 11.0281 16.0664 11.0281 16.0664 13.7976V17.3642C16.0664 17.3642 16.0513 20.1101 18.5803 20.1101H21.2321C22.6262 20.1101 23.7578 21.2401 23.7578 22.6358C23.7578 23.3404 23.4686 23.9794 23.0011 24.4368C22.9355 24.5007 22.8666 24.5629 22.7943 24.6201C21.5987 25.6509 20.1896 26.4429 18.6425 26.9187C18.3197 27.018 18.0944 27.3122 18.0944 27.6519V30.0347C18.0944 30.5307 18.5618 30.9007 19.0428 30.7779C25.7068 29.0812 30.6505 23.0293 30.6505 15.844C30.6505 11.0298 27.9432 11.0314 27.9432 11.0314V11.0281Z" fill="#FB5B3E"/>
<path d="M62.9355 22.7439H60.6436V14.8988C60.6436 13.3709 60.2812 12.176 59.5565 11.3141C58.8513 10.4327 57.9405 9.99193 56.8239 9.99193C55.727 9.99193 54.8259 10.4327 54.1207 11.3141C53.4156 12.176 53.063 13.3709 53.063 14.8988V22.7439H50.7418V14.8988C50.7418 13.3709 50.3892 12.176 49.684 11.3141C48.9788 10.4327 48.068 9.99193 46.9514 9.99193C45.8545 9.99193 44.9534 10.4327 44.2482 11.3141C43.5235 12.176 43.1611 13.3709 43.1611 14.8988V22.7439H40.8693V8.05269H43.1023V9.78625C43.1415 9.72749 43.1807 9.67852 43.2199 9.63934C43.2786 9.60016 43.3178 9.56099 43.3374 9.52181C44.2776 8.30734 45.5411 7.7001 47.1277 7.7001C48.8319 7.7001 50.2521 8.3661 51.3882 9.6981C51.5841 9.89399 51.7506 10.1095 51.8877 10.3445C52.0248 10.5796 52.1521 10.8244 52.2696 11.0791C52.348 10.8048 52.4557 10.5502 52.5929 10.3151C52.73 10.0801 52.8671 9.86461 53.0042 9.66872C53.9836 8.35631 55.3156 7.7001 57.0002 7.7001C58.724 7.7001 60.1441 8.3661 61.2607 9.6981C61.8287 10.3445 62.2499 11.1085 62.5241 11.9899C62.7983 12.8518 62.9355 13.8312 62.9355 14.9282V22.7439ZM64.6144 8.05269H67.1119L72.0481 19.7469L77.0138 8.05269H79.5113L72.3126 25.0945C72.0579 25.6821 71.7347 26.211 71.343 26.6811C70.9512 27.1513 70.4811 27.5626 69.9326 27.9152C68.8553 28.6204 67.6604 28.973 66.348 28.973H65.2902V26.6811H66.348C67.2098 26.6811 67.9934 26.4559 68.6985 26.0053C69.3645 25.5744 69.864 24.9672 70.197 24.1836L70.8435 22.7145L64.6144 8.05269ZM87.9856 7.7001C89.6506 7.7001 91.012 8.23878 92.0697 9.31613C92.1677 9.39449 92.2558 9.48263 92.3342 9.58058C92.4125 9.67852 92.4909 9.77646 92.5692 9.8744V8.05269H95.625V21.1866C95.625 23.5764 94.959 25.4765 93.627 26.8868C92.3146 28.2972 90.5614 29.0024 88.3675 29.0024C87.2902 29.0024 86.3695 28.924 85.6056 28.7673C84.8612 28.6302 84.2148 28.4343 83.6664 28.1796C83.1179 27.925 82.6184 27.641 82.1679 27.3276L83.7251 24.595C84.4107 25.0651 85.1061 25.3981 85.8113 25.594C86.5165 25.7899 87.3196 25.8878 88.2206 25.8878C89.5526 25.8878 90.5516 25.4569 91.2176 24.595C91.4919 24.2228 91.7073 23.8115 91.8641 23.3609C92.0403 22.93 92.1383 22.4501 92.1579 21.9212C92.1579 21.8037 92.1579 21.7057 92.1579 21.6274C92.1579 21.5294 92.1677 21.4217 92.1873 21.3042C92.1285 21.3629 92.0697 21.4315 92.011 21.5098C91.9718 21.5686 91.9228 21.6274 91.8641 21.6861C90.8651 22.6264 89.5722 23.0965 87.9856 23.0965C85.8896 23.0965 84.1561 22.3521 82.7849 20.8634C81.4137 19.3747 80.7281 17.553 80.7281 15.3983C80.7281 13.2632 81.4137 11.4415 82.7849 9.93316C84.1561 8.44446 85.8896 7.7001 87.9856 7.7001ZM88.25 11.0497C87.0551 11.0497 86.0757 11.4708 85.3118 12.3131C84.5282 13.1554 84.1365 14.1838 84.1365 15.3983C84.1365 16.6128 84.5282 17.6509 85.3118 18.5128C86.0757 19.3355 87.0551 19.7469 88.25 19.7469C89.4253 19.7469 90.3753 19.3355 91.1001 18.5128C91.4723 18.0819 91.7563 17.6118 91.9522 17.1025C92.1481 16.5932 92.246 16.0251 92.246 15.3983C92.246 14.7911 92.1481 14.2328 91.9522 13.7235C91.7563 13.2142 91.4723 12.7441 91.1001 12.3131C90.3753 11.4708 89.4253 11.0497 88.25 11.0497ZM98.8169 8.05269H102.196V15.8684C102.196 17.0241 102.519 17.9546 103.165 18.6597C103.792 19.3649 104.586 19.7175 105.545 19.7175C106.486 19.7175 107.269 19.3649 107.896 18.6597C108.523 17.9546 108.836 17.0241 108.836 15.8684V8.05269H112.215V15.7509C112.215 17.886 111.569 19.6392 110.276 21.0103C108.983 22.4011 107.406 23.0965 105.545 23.0965C103.665 23.0965 102.069 22.4011 100.756 21.0103C99.4633 19.6392 98.8169 17.886 98.8169 15.7509V8.05269ZM113.851 8.05269H117.553L121.99 18.3365L126.338 8.05269H129.982L122.842 25.0651C122.568 25.6528 122.225 26.1816 121.813 26.6518C121.422 27.1219 120.952 27.5332 120.403 27.8858C119.287 28.6106 118.072 28.973 116.76 28.973H115.291V25.594H116.76C117.445 25.594 118.053 25.4275 118.581 25.0945C119.091 24.7811 119.473 24.3208 119.727 23.7135L120.197 22.6557L113.851 8.05269Z" fill="#11001C"/>
</svg>
