<svg width="26" height="27" viewBox="0 0 26 27" fill="none" xmlns="http://www.w3.org/2000/svg">
<path d="M9.47949 7.12923C9.47949 6.19545 9.85044 5.29991 10.5107 4.63963C11.171 3.97934 12.0665 3.6084 13.0003 3.6084C13.9341 3.6084 14.8296 3.97934 15.4899 4.63963C16.1502 5.29991 16.5212 6.19545 16.5212 7.12923C16.5212 8.06301 16.1502 8.95855 15.4899 9.61884C14.8296 10.2791 13.9341 10.6501 13.0003 10.6501C12.0665 10.6501 11.171 10.2791 10.5107 9.61884C9.85044 8.95855 9.47949 8.06301 9.47949 7.12923ZM5.41699 5.77507C4.55504 5.77507 3.72839 6.11748 3.1189 6.72697C2.5094 7.33646 2.16699 8.16311 2.16699 9.02507C2.16699 9.88702 2.5094 10.7137 3.1189 11.3232C3.72839 11.9327 4.55504 12.2751 5.41699 12.2751C6.27895 12.2751 7.1056 11.9327 7.71509 11.3232C8.32458 10.7137 8.66699 9.88702 8.66699 9.02507C8.66699 8.16311 8.32458 7.33646 7.71509 6.72697C7.1056 6.11748 6.27895 5.77507 5.41699 5.77507ZM20.5837 5.77507C19.7217 5.77507 18.8951 6.11748 18.2856 6.72697C17.6761 7.33646 17.3337 8.16311 17.3337 9.02507C17.3337 9.88702 17.6761 10.7137 18.2856 11.3232C18.8951 11.9327 19.7217 12.2751 20.5837 12.2751C21.4456 12.2751 22.2723 11.9327 22.8818 11.3232C23.4913 10.7137 23.8337 9.88702 23.8337 9.02507C23.8337 8.16311 23.4913 7.33646 22.8818 6.72697C22.2723 6.11748 21.4456 5.77507 20.5837 5.77507ZM10.0212 12.2751C9.51835 12.2751 9.03614 12.4748 8.6806 12.8303C8.32506 13.1859 8.12533 13.6681 8.12533 14.1709V18.2334C8.12533 19.5263 8.63894 20.7663 9.55318 21.6805C10.4674 22.5948 11.7074 23.1084 13.0003 23.1084C14.2933 23.1084 15.5332 22.5948 16.4475 21.6805C17.3617 20.7663 17.8753 19.5263 17.8753 18.2334V14.1709C17.8753 13.6681 17.6756 13.1859 17.32 12.8303C16.9645 12.4748 16.4823 12.2751 15.9795 12.2751H10.0212ZM7.16116 13.3346C7.08244 13.6011 7.04271 13.8798 7.04199 14.1709V18.2334C7.04111 19.1204 7.23862 19.9963 7.62007 20.7971C8.00153 21.5979 8.55726 22.3032 9.24658 22.8614C8.61615 23.0704 7.94966 23.1484 7.288 23.0906C6.62635 23.0328 5.98349 22.8404 5.39886 22.5252C4.81424 22.21 4.30018 21.7787 3.88824 21.2577C3.47631 20.7367 3.17517 20.137 3.00333 19.4955L2.23199 16.6181C2.16743 16.3776 2.15089 16.1268 2.1833 15.8799C2.21571 15.633 2.29644 15.3949 2.42089 15.1792C2.54533 14.9635 2.71105 14.7745 2.90857 14.6228C3.10609 14.4712 3.33156 14.36 3.57208 14.2955L7.16116 13.3346ZM16.7541 22.8603C17.4431 22.3023 17.9987 21.5974 18.3801 20.797C18.7616 19.9966 18.9592 19.1211 18.9587 18.2345V14.172C18.9579 13.8788 18.9182 13.5993 18.8395 13.3335L22.4297 14.2955C22.9152 14.4257 23.3291 14.7435 23.5804 15.1788C23.8317 15.6142 23.8998 16.1315 23.7697 16.6171L22.9984 19.4955C22.8265 20.1371 22.5252 20.7367 22.1131 21.2577C21.7011 21.7787 21.1869 22.2099 20.6022 22.525C20.0174 22.8401 19.3745 23.0324 18.7127 23.0901C18.051 23.1477 17.3845 23.0695 16.7541 22.8603Z" fill="#9E9E9E"/>
</svg>
