<svg width="26" height="27" viewBox="0 0 26 27" fill="none" xmlns="http://www.w3.org/2000/svg">
<path d="M15.7083 19.8585C14.95 19.8585 14.309 19.5967 13.7854 19.0731C13.2618 18.5494 13 17.9085 13 17.1501C13 16.3918 13.2618 15.7508 13.7854 15.2272C14.309 14.7036 14.95 14.4418 15.7083 14.4418C16.4667 14.4418 17.1076 14.7036 17.6313 15.2272C18.1549 15.7508 18.4167 16.3918 18.4167 17.1501C18.4167 17.9085 18.1549 18.5494 17.6313 19.0731C17.1076 19.5967 16.4667 19.8585 15.7083 19.8585ZM5.41667 24.1918C4.82083 24.1918 4.31094 23.9798 3.887 23.5559C3.46306 23.132 3.25072 22.6217 3.25 22.0251V6.85848C3.25 6.26265 3.46233 5.75276 3.887 5.32881C4.31167 4.90487 4.82156 4.69254 5.41667 4.69181H6.5V2.52515H8.66667V4.69181H17.3333V2.52515H19.5V4.69181H20.5833C21.1792 4.69181 21.6894 4.90415 22.1141 5.32881C22.5388 5.75348 22.7507 6.26337 22.75 6.85848V22.0251C22.75 22.621 22.538 23.1312 22.1141 23.5559C21.6901 23.9806 21.1799 24.1925 20.5833 24.1918H5.41667ZM5.41667 22.0251H20.5833V11.1918H5.41667V22.0251Z" fill="#9E9E9E"/>
</svg>
